<?xml version="1.0" encoding="UTF-8" standalone="no"?>
<!-- Created with Inkscape (http://www.inkscape.org/) -->

<svg
   width="512"
   height="512"
   viewBox="0 0 135.46666 135.46667"
   version="1.1"
   id="svg1"
   inkscape:version="1.3.2 (1:1.3.2+202311252150+091e20ef0f)"
   sodipodi:docname="intervukit-logo.svg"
   inkscape:export-filename="intervukit-logo.png"
   inkscape:export-xdpi="96"
   inkscape:export-ydpi="96"
   xmlns:inkscape="http://www.inkscape.org/namespaces/inkscape"
   xmlns:sodipodi="http://sodipodi.sourceforge.net/DTD/sodipodi-0.dtd"
   xmlns="http://www.w3.org/2000/svg"
   xmlns:svg="http://www.w3.org/2000/svg">
  <sodipodi:namedview
     id="namedview1"
     pagecolor="#ffffff"
     bordercolor="#000000"
     borderopacity="0.25"
     inkscape:showpageshadow="2"
     inkscape:pageopacity="0.0"
     inkscape:pagecheckerboard="0"
     inkscape:deskcolor="#d1d1d1"
     inkscape:document-units="mm"
     inkscape:zoom="0.68150253"
     inkscape:cx="378.57526"
     inkscape:cy="561.25984"
     inkscape:window-width="1920"
     inkscape:window-height="965"
     inkscape:window-x="0"
     inkscape:window-y="0"
     inkscape:window-maximized="1"
     inkscape:current-layer="layer1" />
  <defs
     id="defs1" />
  <g
     inkscape:label="Layer 1"
     inkscape:groupmode="layer"
     id="layer1">
    <g
       transform="matrix(0.76953028,0,0,0.76953028,34.143767,172.7775)"
       class="css-1yyxhds"
       fill="#f76b8a"
       id="g1"
       style="stroke-width:0.0568685;fill:#000000;fill-opacity:1">
      <path
         d="m 55.7,52.2 h -9.3 v -4.5 h 9.3 V 21 c 0,-1.2 1,-2.2 2.2,-2.2 h 7.2 v 4.5 h -5 v 24.5 h 5 v 4.5 h -5 v 24.5 h 5 v 4.5 h -7.2 c -1.2,0 -2.2,-1 -2.2,-2.2 z m 17,7.8 H 85 c 2.2,0 3.9,-1.7 3.9,-3.9 V 43.9 C 88.9,41.7 87.2,40 85,40 H 72.7 c -2.2,0 -3.9,1.7 -3.9,3.9 v 12.3 c 0,2.1 1.7,3.8 3.9,3.8 z m 0,8.9 c -2.2,0 -3.9,1.7 -3.9,3.9 v 12.3 c 0,2.2 1.7,3.9 3.9,3.9 H 85 c 2.2,0 3.9,-1.7 3.9,-3.9 V 72.8 c 0,-2.2 -1.7,-3.9 -3.9,-3.9 z M 85,11 H 72.7 c -2.2,0 -3.9,1.7 -3.9,3.9 v 12.3 c 0,2.2 1.7,3.9 3.9,3.9 H 85 c 2.2,0 3.9,-1.7 3.9,-3.9 V 14.9 C 88.9,12.7 87.1,11 85,11 Z M 13.4,55.4 C 11.9,53.6 11.1,51.3 11.1,48.9 V 33 28.8 c 0,-0.9 0.4,-1.8 1.1,-2.3 3.8,-3.2 8,-5.3 8.8,-5.7 0.1,0 0.1,-0.1 0.1,-0.2 v -2.1 c -0.6,-1 -0.9,-2.1 -1,-3 -0.3,0 -0.8,-0.5 -1.3,-2.2 -0.7,-2.3 0,-2.7 0.6,-2.6 0,0 -1.6,-5.5 2.3,-7.9 0,0 -0.7,-0.6 -0.6,-1.4 0,0 3.8,0.4 5.6,0.1 2,-0.5 4,1 4.3,2.4 0,0 3.9,-0.3 2.2,6.7 0,0 0,0.1 -0.1,0.4 h 0.1 c 0.4,0.2 0.8,0.8 0.2,2.6 -0.6,2.2 -1.2,2.3 -1.5,2.1 -0.1,0.8 -0.4,1.6 -0.7,2.4 0,1.1 0,2 0,2.5 0,0.1 0.1,0.2 0.1,0.2 0.8,0.4 5,2.5 8.8,5.7 0.7,0.6 1.1,1.4 1.1,2.3 V 33 48.8 c 0,2.4 -0.8,4.7 -2.4,6.5 l -3.2,3.8 -2.9,37.2 c -0.1,1.3 -1.2,2.3 -2.5,2.3 h -8.3 c -1.3,0 -2.4,-1 -2.5,-2.3 L 16.5,59.1 Z m 12,-27.7 -1.5,13 2.4,2.6 2.3,-2.6 -1.5,-13 c 3.1,-4.3 -0.2,-4.5 -0.8,-4.5 v 0 0 c -0.7,-0.1 -4,0.1 -0.9,4.5 z"
         id="path1-5"
         style="fill:#000000;fill-opacity:1;stroke-width:0.0568685" />
    </g>
    <g
       id="g2"
       style="stroke-width:0.169124;fill:#3f72af;fill-opacity:1"
       transform="matrix(1.3225863,0,0,1.3225863,0.95098769,-0.64311424)"
       inkscape:label="Breifcase">
      <path
         id="path2"
         style="stroke-width:0.169124;fill:#3f72af;fill-opacity:1"
         d="M 35.10827 11.354594 C 32.3936 11.354594 30.221893 13.526299 30.221893 16.240971 L 30.221893 23.950708 L 14.476946 23.950708 C 7.3102163 23.950708 1.4463481 29.814576 1.4463481 36.981306 L 1.4463481 76.072709 C 1.4463481 83.239438 7.3102163 89.102916 14.476946 89.102916 L 86.144453 89.102916 C 93.31118 89.102916 99.17466 83.239438 99.17466 76.072709 L 99.17466 36.981306 C 99.17466 29.814577 93.31118 23.950708 86.144453 23.950708 L 70.399114 23.950708 L 70.399114 16.240971 C 70.399114 13.526299 68.227408 11.354594 65.512738 11.354594 L 35.10827 11.354594 z M 36.085858 14.829681 L 64.752782 14.829681 C 66.055824 14.829681 67.250281 15.915552 67.250281 17.327179 L 67.250281 23.950708 L 33.588359 23.950708 L 33.588359 17.327179 C 33.588359 16.024139 34.67423 14.829681 36.085858 14.829681 z M 41.320759 28.61828 L 57.093057 28.61828 L 49.207103 38.188639 L 41.320759 28.61828 z M 45.855094 36.707019 L 49.206322 40.815467 L 52.558331 36.707019 L 59.915246 68.943976 L 49.206322 82.802905 L 38.497788 68.943976 L 45.855094 36.707019 z "
         inkscape:label="path2" />
    </g>
  </g>
</svg>
